<svg xmlns="http://www.w3.org/2000/svg" version="1.1" xmlns:xlink="http://www.w3.org/1999/xlink" xmlns:svgjs="http://svgjs.dev/svgjs" width="128" height="128" viewBox="0 0 128 128"><g transform="matrix(0.8046875,0,0,0.8046875,12.333870967741937,12.333870967741937)"><svg viewBox="0 0 155 155" data-background-color="#333366" preserveAspectRatio="xMidYMid meet" height="128" width="128" xmlns="http://www.w3.org/2000/svg" xmlns:xlink="http://www.w3.org/1999/xlink"><g id="tight-bounds" transform="matrix(1,0,0,1,0.25,0.25)"><svg viewBox="0 0 154.5 154.5" height="154.5" width="154.5"><g><svg></svg></g><g><svg viewBox="0 0 154.5 154.5" height="154.5" width="154.5"><g transform="matrix(1,0,0,1,53.11066718181819,47.746371)"><svg viewBox="0 0 48.278665636363634 59.00725799999999" height="59.00725799999999" width="48.278665636363634"><g><svg viewBox="0 0 48.278665636363634 59.00725799999999" height="59.00725799999999" width="48.278665636363634"><g><svg viewBox="0 0 48.278665636363634 59.00725799999999" height="59.00725799999999" width="48.278665636363634"><g id="textblocktransform"><svg viewBox="0 0 48.278665636363634 59.00725799999999" height="59.00725799999999" width="48.278665636363634" id="textblock"><g><svg viewBox="0 0 48.278665636363634 59.00725799999999" height="59.00725799999999" width="48.278665636363634"><g transform="matrix(1,0,0,1,0,0)"><svg width="48.278665636363634" viewBox="2.27 -26.9 22.41 27.39" height="59.00725799999999" data-palette-color="#ffffff"><path d="M14.38 0.49L14.38 0.49Q9.01 0.49 5.64-3.04 2.27-6.57 2.27-12.48L2.27-12.48 2.27-13.31Q2.27-17.24 3.77-20.32 5.27-23.41 7.97-25.16 10.67-26.9 13.82-26.9L13.82-26.9Q18.97-26.9 21.83-23.51 24.68-20.12 24.68-13.79L24.68-13.79 24.68-11.91 6.79-11.91Q6.88-8.01 9.07-5.6 11.25-3.2 14.62-3.2L14.62-3.2Q17.02-3.2 18.68-4.17 20.34-5.15 21.58-6.76L21.58-6.76 24.34-4.61Q21.02 0.49 14.38 0.49ZM13.82-23.19L13.82-23.19Q11.08-23.19 9.23-21.2 7.37-19.21 6.93-15.63L6.93-15.63 20.17-15.63 20.17-15.97Q19.97-19.41 18.31-21.3 16.65-23.19 13.82-23.19Z" opacity="1" transform="matrix(1,0,0,1,0,0)" fill="#000000" class="undefined-text-0" data-fill-palette-color="primary" id="text-0"></path></svg></g></svg></g></svg></g></svg></g></svg></g></svg></g><path d="M53.111 41.746L53.111 1 101.389 1 101.389 41.746 96.068 41.746 96.068 6.321 58.432 6.321 58.432 41.746 53.111 41.746M53.111 112.754L53.111 153.5 101.389 153.5 101.389 112.754 96.068 112.754 96.068 148.179 58.432 148.179 58.432 112.754 53.111 112.754" fill="#000000" stroke="transparent" data-fill-palette-color="primary"></path></svg></g><defs></defs></svg><rect width="154.5" height="154.5" fill="none" stroke="none" visibility="hidden"></rect></g></svg></g></svg>